<svg width="18" height="18" viewBox="0 0 18 18" fill="none" xmlns="http://www.w3.org/2000/svg">
<path fill-rule="evenodd" clip-rule="evenodd" d="M11.7165 5.45193C11.8688 5.15573 11.7969 4.78326 11.5271 4.56666C11.2574 4.35038 10.8788 4.36081 10.6226 4.57322L10.5209 4.67748L4.83665 11.7589L2.9006 9.824C2.6211 9.54477 2.16803 9.54451 1.88857 9.8238C1.60904 10.1033 1.60956 10.557 1.8891 10.8365L4.38919 13.3363C4.533 13.48 4.73122 13.5558 4.93419 13.5447C5.13712 13.5335 5.32588 13.4366 5.45311 13.2781L11.6379 5.57281L11.7165 5.45193ZM15.8024 5.45162C15.9546 5.15549 15.8834 4.78359 15.6137 4.567C15.344 4.35053 14.9655 4.36114 14.7092 4.57356L14.6068 4.67717L8.92252 11.7586L8.48723 11.3237C8.20768 11.0444 7.754 11.0448 7.47454 11.3242C7.23015 11.5688 7.19992 11.9463 7.3833 12.2241L7.47507 12.3369L8.47506 13.336C8.61889 13.4798 8.81696 13.5555 9.02006 13.5444C9.22311 13.5333 9.41168 13.4364 9.53898 13.2778L15.7237 5.5725L15.8024 5.45162Z" fill="#007BFC"/>
</svg>
