<svg width="24" height="25" viewBox="0 0 24 25" fill="none" xmlns="http://www.w3.org/2000/svg">
<path fill-rule="evenodd" clip-rule="evenodd" d="M12 2.7998C17.3572 2.7998 21.7002 7.14284 21.7002 12.5C21.7002 17.4994 17.9179 21.6155 13.0588 22.1431V15.5755H16.3235L16.4118 12.4976H13.0588V10.2748C13.0588 9.41981 13.2353 8.90684 14.3824 8.90684H16.4118L16.5 6.0855C16.5 6.0855 15.5294 6 14.2941 6C11.1176 6 9.79412 7.8809 9.79412 9.93278V12.4976H7.5V15.5755H9.79412L9.79395 21.9482C5.49959 20.9494 2.2998 17.0983 2.2998 12.5C2.2998 7.14284 6.64284 2.7998 12 2.7998ZM12 23.7998C18.2408 23.7998 23.2998 18.7408 23.2998 12.5C23.2998 6.25918 18.2408 1.2002 12 1.2002C5.75918 1.2002 0.700195 6.25918 0.700195 12.5C0.700195 18.7408 5.75918 23.7998 12 23.7998Z" fill="#0A0A0A"/>
</svg>
