<svg width="32" height="32" viewBox="0 0 32 32" fill="none" xmlns="http://www.w3.org/2000/svg">
<path d="M20.7676 26.1555C17.8452 26.1555 14.2666 24.3303 10.9751 21.0388C7.66309 17.7268 5.8584 14.1585 5.8584 11.2258C5.8584 9.45192 6.34033 8.27272 7.50928 7.22682C7.59131 7.15504 7.67334 7.08326 7.76562 7.00123C8.45264 6.386 9.12939 6.08864 9.77539 6.09889C10.5137 6.10914 11.2007 6.52955 11.8364 7.44215L13.9077 10.426C14.5435 11.3386 14.6152 12.4255 13.7539 13.2869L12.9746 14.0764C12.7388 14.3123 12.7285 14.5071 12.8618 14.7429C13.272 15.3889 14.041 16.2708 14.8408 17.0603C15.5996 17.8191 16.7173 18.7932 17.271 19.1419C17.4966 19.2854 17.7017 19.2752 17.9375 19.0393L18.7271 18.2498C19.5884 17.3987 20.665 17.4705 21.5879 18.1062L24.5718 20.1775C25.4844 20.8132 25.915 21.5003 25.915 22.2385C25.915 22.8845 25.6279 23.5613 25.0127 24.2483C24.9409 24.3303 24.8589 24.4226 24.7769 24.5047C23.7412 25.6736 22.562 26.1555 20.7676 26.1555ZM20.7778 24.5764C21.916 24.5559 22.8901 24.1663 23.5874 23.3665C23.6489 23.2947 23.6899 23.2434 23.7515 23.1716C24.0181 22.864 24.1616 22.5359 24.1616 22.2385C24.1616 21.9309 24.0488 21.6746 23.7412 21.4695L20.7573 19.4802C20.4292 19.2752 20.0806 19.2547 19.7627 19.5725L18.8604 20.4749C18.1528 21.1824 17.2915 21.1311 16.6045 20.6184C15.8047 20.0237 14.564 18.9163 13.7847 18.1267C12.9951 17.3474 11.98 16.199 11.3955 15.4094C10.8828 14.7224 10.8315 13.8611 11.5391 13.1536L12.4414 12.2512C12.7593 11.9334 12.7388 11.5745 12.5234 11.2566L10.5342 8.27272C10.3394 7.9651 10.0728 7.85231 9.77539 7.85231C9.47803 7.85231 9.1499 7.99586 8.84229 8.26246C8.77051 8.31373 8.71924 8.365 8.64746 8.42653C7.84766 9.12379 7.44775 10.0979 7.42725 11.2258C7.37598 13.8406 9.47803 17.3064 12.1543 19.9724C14.8101 22.6179 18.1631 24.6277 20.7778 24.5764Z" fill="#0A0A0A"/>
</svg>
