<svg width="24" height="24" viewBox="0 0 24 24" fill="none" xmlns="http://www.w3.org/2000/svg">
<path fill-rule="evenodd" clip-rule="evenodd" d="M11.6155 2.89991L13.9359 2.89991C14.4593 2.8999 14.7592 2.8999 15.0179 2.92026C18.2543 3.17497 20.825 5.7456 21.0797 8.98208C21.1 9.24075 21.1 9.54062 21.1 10.0641V10.1375C21.1 10.9379 21.1 11.377 21.0704 11.7531C20.6999 16.4607 16.9609 20.1998 12.2532 20.5703C11.8771 20.5999 11.438 20.5999 10.6376 20.5999H10.2524C9.5543 20.5999 9.15436 20.5999 8.81015 20.5638C5.71097 20.238 3.26192 17.789 2.93619 14.6898C2.90001 14.3456 2.90002 13.9457 2.90003 13.2477L2.90003 11.6154C2.89993 9.64928 2.89987 8.52143 3.18423 7.58403C3.8241 5.47466 5.47478 3.82397 7.58415 3.1841C8.52155 2.89975 9.6494 2.89981 11.6155 2.89991ZM11.75 4.09991C9.61286 4.09991 8.67751 4.10643 7.9325 4.33243C6.20665 4.85596 4.85609 6.20653 4.33256 7.93237C4.10656 8.67739 4.10003 9.61273 4.10003 11.7499V13.1999C4.10003 13.9582 4.10086 14.2908 4.12961 14.5644C4.39613 17.1001 6.39989 19.1038 8.93558 19.3703C9.20913 19.3991 9.54177 19.3999 10.3 19.3999H10.6C11.4472 19.3999 11.836 19.3994 12.1591 19.374C12.2949 19.3633 12.3998 19.2475 12.3994 19.1065C12.3993 19.073 12.3992 19.0395 12.3991 19.0059C12.3968 18.2485 12.3944 17.4838 12.4565 16.7239C12.514 16.0197 12.6331 15.438 12.9014 14.9115C13.3424 14.046 14.0461 13.3423 14.9117 12.9013C15.4382 12.633 16.0199 12.5139 16.724 12.4564C17.5478 12.3891 18.3761 12.3928 19.1978 12.3973C19.4427 12.3987 19.5331 12.3969 19.6099 12.361C19.6767 12.3297 19.7451 12.2681 19.7831 12.2049C19.827 12.132 19.8372 12.0506 19.8593 11.8267C19.8648 11.771 19.8697 11.7151 19.8741 11.659C19.8996 11.3359 19.9 10.9471 19.9 10.0999C19.9 9.53129 19.8996 9.28181 19.8834 9.07623C19.675 6.4282 17.5717 4.32496 14.9237 4.11656C14.7181 4.10038 14.4687 4.09991 13.9 4.09991H11.75ZM18.9752 13.5977C18.2536 13.5944 17.5349 13.5941 16.8217 13.6524C16.1918 13.7039 15.7856 13.8028 15.4565 13.9705C14.8167 14.2965 14.2966 14.8166 13.9706 15.4563C13.8029 15.7855 13.704 16.1917 13.6525 16.8216C13.6128 17.3078 13.6031 17.8966 13.6008 18.6525C13.6004 18.7573 13.6003 18.8287 13.6054 18.8834C13.6104 18.9368 13.6195 18.9631 13.6308 18.981C13.6562 19.0214 13.7033 19.0559 13.7494 19.068C13.7706 19.0735 13.7977 19.0743 13.8468 19.0639C13.8977 19.0531 13.9619 19.0328 14.0568 19.0025C16.4656 18.234 18.3983 16.4129 19.3177 14.0764C19.3562 13.9785 19.3823 13.9119 19.3972 13.8589C19.4116 13.8076 19.4123 13.7794 19.4077 13.7575C19.3976 13.7092 19.3639 13.6596 19.3228 13.6322C19.3049 13.6203 19.2776 13.6103 19.2207 13.6045C19.1626 13.5986 19.0864 13.5982 18.9752 13.5977Z" fill="#0A0A0A"/>
</svg>
