<svg width="26" height="18" viewBox="0 0 26 18" fill="none" xmlns="http://www.w3.org/2000/svg">
<path fill-rule="evenodd" clip-rule="evenodd" d="M3.49995 0.700195C1.67741 0.700195 0.199951 2.17766 0.199951 4.0002V14.0002C0.199951 15.8227 1.67741 17.3002 3.49995 17.3002H16C17.8226 17.3002 19.3 15.8227 19.3 14.0002V12.0266L22.8181 15.0895C23.9828 16.1036 25.8 15.2763 25.8 13.7319L25.8 4.26852C25.8 2.72414 23.9829 1.89685 22.8181 2.91093L19.3 5.9738V4.0002C19.3 2.17766 17.8226 0.700195 16 0.700195H3.49995ZM19.3 8.09521V9.9052L23.8687 13.8828C23.9981 13.9954 24.2 13.9035 24.2 13.7319L24.2 4.26852C24.2 4.09692 23.9981 4.005 23.8687 4.11767L19.3 8.09521ZM1.79995 4.0002C1.79995 3.06131 2.56107 2.3002 3.49995 2.3002H16C16.9389 2.3002 17.7 3.06131 17.7 4.0002V14.0002C17.7 14.9391 16.9389 15.7002 16 15.7002H3.49995C2.56107 15.7002 1.79995 14.9391 1.79995 14.0002V4.0002Z" fill="#0A0A0A"/>
</svg>
